<svg xmlns="http://www.w3.org/2000/svg" width="430" height="430" fill="none" viewBox="0 0 430 430"><g stroke-linecap="round" stroke-linejoin="round" stroke-width="12"><path stroke="#6c16c7" d="M123.38 123.73 87.215 87.566m61.909 11.733L127.496 50m-28.81 100L50 127.671M311.545 312.17l36.252 36.252M285.801 336.6l21.629 49.3m28.809-100 48.686 22.329"/><path stroke="#0a5c15" d="m182.518 135.856 53.843-54.033c29.733-29.828 78.906-28.97 109.877 1.906l.286.286c30.876 30.876 31.829 80.144 2.097 109.877l-53.843 54.033m-46.981 46.219-53.843 54.033c-29.733 29.828-78.906 28.97-109.877-1.906l-.286-.286c-30.876-30.876-31.83-80.144-2.097-109.877l53.938-54.033M270 160 160 270"/></g></svg>